<?xml version="1.0" encoding="utf-8"?>
<!-- Generator: Adobe Illustrator 18.1.1, SVG Export Plug-In . SVG Version: 6.00 Build 0)  -->
<svg version="1.1" id="Layer_1" xmlns="http://www.w3.org/2000/svg" xmlns:xlink="http://www.w3.org/1999/xlink" x="0px" y="0px"
	 viewBox="0 0 732.7 500" enable-background="new 0 0 732.7 500" xml:space="preserve">
<path fill="#FBB040" d="M344.9,399.2c-55.7,0-100.8,45.2-100.8,100.8h201.7C445.8,444.3,400.6,399.2,344.9,399.2z"/>
<path fill="#FFF200" d="M284.4,409.2L235.5,336c-1,0.7-2.1,1.4-3.1,2.1l50.3,72.2C283.3,410,283.8,409.6,284.4,409.2z"/>
<path fill="#FFF200" d="M337.4,391.1l-5.9-87.8c-2.5,0.2-5,0.4-7.5,0.6l9.2,87.5C334.7,391.4,336.1,391.2,337.4,391.1z"/>
<path fill="#FFF200" d="M321,393.5l-19.1-85.9c-5.3,1.2-10.6,2.6-15.7,4.2l26.2,84C315.2,394.9,318.1,394.2,321,393.5z"/>
<path fill="#FFF200" d="M293.9,403.5l-41.2-77.8c-2.2,1.2-4.4,2.4-6.6,3.6l44.2,76.1C291.5,404.8,292.7,404.2,293.9,403.5z"/>
<path fill="#FFF200" d="M326.5,392.4l-14.8-86.7c-1.2,0.2-2.4,0.4-3.6,0.7l16.4,86.5C325.1,392.7,325.8,392.6,326.5,392.4z"/>
<path fill="#FFF200" d="M259.1,432.7l-69.2-54.4c-1.5,2-3.1,4-4.5,6l71.2,51.7C257.4,434.9,258.2,433.7,259.1,432.7z"/>
<path fill="#FFF200" d="M279.9,412.4l-52.5-70.6c-4.3,3.2-8.6,6.7-12.6,10.2l58.1,66.1C275.1,416.1,277.5,414.2,279.9,412.4z"/>
<polygon fill="#FFF200" points="542,499.6 542,499.7 542,499.7 "/>
<rect x="454" y="499.7" fill="#FFF200" width="88" height="0.3"/>
<path fill="#FFF200" d="M236.3,489.7l-87.6-8.2c-0.5,5.3-0.8,10.8-0.8,16.2l88,1C235.9,495.7,236,492.7,236.3,489.7z"/>
<path fill="#FFF200" d="M239.1,473.3l-85.4-21.4c-0.6,2.4-1.2,4.9-1.7,7.3l86.1,18.1C238.4,476,238.8,474.7,239.1,473.3z"/>
<path fill="#FFF200" d="M249.8,446.5l-76.6-43.3c-2.7,4.7-5.1,9.6-7.4,14.5l79.9,36.8C247,451.8,248.4,449.1,249.8,446.5z"/>
<path fill="#FFF200" d="M252.7,441.7l-74.3-47.1c-0.7,1.1-1.3,2.1-2,3.2l75.2,45.7C251.9,442.9,252.3,442.3,252.7,441.7z"/>
<path fill="#FFF200" d="M453.8,492.7l87.8-5.6c-0.1-1.3-0.2-2.5-0.3-3.8l-87.7,7.4C453.7,491.4,453.8,492.1,453.8,492.7z"/>
<path fill="#FFF200" d="M438.8,444.4l75.7-44.9c-2.8-4.6-5.7-9.2-8.9-13.6l-71.7,51C435.7,439.3,437.3,441.9,438.8,444.4z"/>
<path fill="#FFF200" d="M441.5,449.2l77.9-41c-0.6-1.1-1.2-2.2-1.8-3.3l-77,42.5C440.9,448,441.2,448.6,441.5,449.2z"/>
<path fill="#FFF200" d="M446.2,459.2l81.6-32.9c-0.9-2.3-1.9-4.6-2.9-6.9l-80.3,36C445.1,456.7,445.7,458,446.2,459.2z"/>
<path fill="#FFF200" d="M237,484.2l-87.1-12.6c-0.2,1.2-0.3,2.5-0.5,3.7l87.3,10.9C236.8,485.6,236.9,484.9,237,484.2z"/>
<path fill="#FFF200" d="M453.3,487.3l87.4-10.1c-0.6-5.4-1.5-10.8-2.5-16.1l-86.3,17.3C452.5,481.3,453,484.3,453.3,487.3z"/>
<path fill="#FFF200" d="M408.1,411l51-71.7c-4.4-3.1-9-6.1-13.6-8.9l-44.9,75.7C403.1,407.6,405.6,409.3,408.1,411z"/>
<path fill="#FFF200" d="M371.8,394.2l21.7-85.3c-1.2-0.3-2.5-0.6-3.7-0.9l-20,85.7C370.5,393.9,371.2,394.1,371.8,394.2z"/>
<path fill="#FFF200" d="M420.9,421.6l61.2-63.2c-1.8-1.7-3.6-3.5-5.5-5.1l-58.8,65.5C418.8,419.7,419.9,420.7,420.9,421.6z"/>
<path fill="#FFF200" d="M382.4,397.5l30.2-82.6c-2.4-0.9-4.8-1.7-7.1-2.5l-27,83.7C379.8,396.6,381.1,397,382.4,397.5z"/>
<path fill="#FFF200" d="M383.7,306.7c-5.3-1.1-10.7-1.9-16.1-2.5l-10.1,87.4c3,0.3,6,0.8,8.9,1.4L383.7,306.7z"/>
<path fill="#FFF200" d="M412.5,414.3l54.6-69.1c-1-0.8-2-1.5-3-2.3l-53.2,70.1C411.4,413.5,412,413.9,412.5,414.3z"/>
<path fill="#009444" stroke="#231F20" stroke-miterlimit="10" d="M607.3,442.7c-73.8-5.6-96.1,20.9-129.2,28.8
	c-33.1,7.9-125.8,14.7-235.9-20.3C132.2,416.2,0,500,0,500h732.7C732.7,500,662.5,446.8,607.3,442.7z"/>
<path opacity="0.3" fill="#FFFFFF" d="M484,130.8c0.1,0,0.2,0,0.3,0c1.2-4.9,6.4-8.5,12.7-8.5c0.6,0,1.3,0,1.9,0.1
	c3.5-8.5,12-14.6,22-14.6c11.2,0,20.6,7.6,23,17.7c3.9,1.1,7.1,3.5,9.1,6.8c0.6-0.1,1.3-0.1,2-0.1c6.7,0,12.1,4.8,12.1,10.8
	c0,5.1-3.9,9.3-9.2,10.5c0.1,0.1,0.2,0.2,0.2,0.3c0,2-18.8,3.6-42,3.6c-11.7,0-22.3-0.4-29.9-1.1c-0.7,0-1.4,0.1-2.1,0.1
	c-10.4,0-18.9-5.7-18.9-12.8C465.1,136.5,473.6,130.8,484,130.8z"/>
<path opacity="0.5" fill="#FFFFFF" d="M345,28.6c-0.1,0-0.2,0-0.3,0c-1.2-4.9-6.4-8.5-12.7-8.5c-0.6,0-1.3,0-1.9,0.1
	c-3.5-8.5-12-14.6-22-14.6c-11.2,0-20.6,7.6-23,17.7c-3.9,1.1-7.1,3.5-9.1,6.8c-0.6-0.1-1.3-0.1-2-0.1c-6.7,0-12.1,4.8-12.1,10.8
	c0,5.1,3.9,9.3,9.2,10.5c-0.1,0.1-0.2,0.2-0.2,0.3c0,2,18.8,3.6,42,3.6c11.7,0,22.3-0.4,29.9-1.1c0.7,0,1.4,0.1,2.1,0.1
	c10.4,0,18.9-5.7,18.9-12.8C363.9,34.3,355.4,28.6,345,28.6z"/>
<path opacity="0.8" fill="#FFFFFF" d="M218.7,127.3c-0.1,0-0.2,0-0.4,0c-1.7-4.1-9-7.2-17.7-7.2c-0.9,0-1.8,0-2.6,0.1
	c-4.8-7.2-16.7-12.4-30.7-12.4c-15.6,0-28.7,6.4-32.1,15.1c-5.4,0.9-9.9,3-12.6,5.7c-0.9-0.1-1.8-0.1-2.7-0.1
	c-9.3,0-16.9,4.1-16.9,9.1c0,4.3,5.5,7.9,12.9,8.9c-0.1,0.1-0.2,0.2-0.2,0.3c0,1.7,26.2,3,58.5,3c16.3,0,31.1-0.3,41.7-0.9
	c0.9,0,1.9,0.1,2.9,0.1c14.5,0,26.3-4.9,26.3-10.8C245,132.2,233.2,127.3,218.7,127.3z"/>
<path opacity="0.3" fill="#FFFFFF" d="M255.8,52.3c-0.1,0-0.3,0-0.4,0c-1.9-7.8-10.3-13.6-20.3-13.6c-1,0-2,0.1-3,0.2
	c-5.5-13.6-19.2-23.3-35.1-23.3c-17.9,0-32.9,12.1-36.8,28.3c-6.2,1.7-11.4,5.6-14.5,10.8c-1-0.1-2.1-0.2-3.1-0.2
	c-10.7,0-19.4,7.7-19.4,17.2c0,8.1,6.3,14.9,14.7,16.7c-0.2,0.2-0.3,0.3-0.3,0.5c0,3.1,30,5.7,67.1,5.7c18.7,0,35.6-0.6,47.7-1.7
	c1.1,0.1,2.2,0.1,3.3,0.1c16.6,0,30.1-9.1,30.1-20.4C285.9,61.4,272.4,52.3,255.8,52.3z"/>
<path opacity="0.5" fill="#FFFFFF" d="M281,137c0.1,0,0.3,0,0.4,0c1.9-7.8,10.3-13.6,20.3-13.6c1,0,2,0.1,3,0.2
	c5.5-13.6,19.2-23.3,35.1-23.3c17.9,0,32.9,12.1,36.8,28.3c6.2,1.7,11.4,5.6,14.5,10.8c1-0.1,2.1-0.2,3.1-0.2
	c10.7,0,19.4,7.7,19.4,17.2c0,8.1-6.3,14.9-14.7,16.7c0.2,0.2,0.3,0.3,0.3,0.5c0,3.1-30,5.7-67.1,5.7c-18.7,0-35.6-0.6-47.7-1.7
	c-1.1,0.1-2.2,0.1-3.3,0.1c-16.6,0-30.1-9.1-30.1-20.4C250.9,146.1,264.3,137,281,137z"/>
<path opacity="0.8" fill="#FFFFFF" d="M409.5,41.2c0.2,0,0.4,0,0.6,0c2.7-6.6,14.3-11.5,28.3-11.5c1.4,0,2.8,0.1,4.2,0.2
	c7.7-11.6,26.7-19.7,48.9-19.7c24.9,0,45.8,10.3,51.2,24c8.6,1.5,15.9,4.8,20.2,9.2c1.4-0.1,2.9-0.2,4.4-0.2c14.9,0,27,6.5,27,14.6
	c0,6.9-8.7,12.6-20.5,14.2c0.2,0.1,0.4,0.3,0.4,0.4c0,2.7-41.8,4.8-93.5,4.8c-26,0-49.6-0.5-66.5-1.4c-1.5,0.1-3,0.1-4.6,0.1
	c-23.2,0-42-7.7-42-17.3C367.5,48.9,386.3,41.2,409.5,41.2z"/>
<path fill="#FFFFFF" d="M336.7,81.6"/>
<g>
	<path fill="#231F20" d="M271.1,195.6c-33.2-0.1-150.7,85.8-150.7,85.8l-31.2-16.5l7.3,23.9l17.3,9.2l0.8,2.6L93.3,307l2.1,6.7
		l21.3-6.5l0.4,1.4l-9.2,17.3l7.3,23.9l16.5-31.2c0,0,145.5,5.2,172.9-13.6c29.7-20.3,38.5-46.7,44.9-73.6
		C329.2,212.6,307,195.8,271.1,195.6z"/>
	
		<rect x="264.6" y="198.1" transform="matrix(0.9562 -0.2926 0.2926 0.9562 -63.3493 89.4287)" fill="#6D6E71" width="5.3" height="116.7"/>
</g>
</svg>
